<?xml version="1.0" encoding="UTF-8" standalone="no"?>
<!DOCTYPE svg PUBLIC "-//W3C//DTD SVG 1.1//EN"
 "http://www.w3.org/Graphics/SVG/1.1/DTD/svg11.dtd">
<!-- Generated by graphviz version 8.0.4 (20230422.2207)
 -->
<!-- Title: finite_state_machine Pages: 1 -->
<svg width="367pt" height="247pt"
 viewBox="0.00 0.00 366.52 246.84" xmlns="http://www.w3.org/2000/svg" xmlns:xlink="http://www.w3.org/1999/xlink">
<g id="graph0" class="graph" transform="scale(1 1) rotate(0) translate(4 242.84)">
<title>finite_state_machine</title>
<polygon fill="white" stroke="none" points="-4,4 -4,-242.84 362.52,-242.84 362.52,4 -4,4"/>
<!-- LR_0 -->
<g id="node1" class="node">
<title>LR_0</title>
<ellipse fill="none" stroke="black" cx="36.42" cy="-79.42" rx="32.42" ry="32.42"/>
<ellipse fill="none" stroke="black" cx="36.42" cy="-79.42" rx="36.42" ry="36.42"/>
<text text-anchor="middle" x="36.42" y="-74.52" font-family="Times,serif" font-size="14.00">LR_0</text>
</g>
<!-- LR_2 -->
<g id="node3" class="node">
<title>LR_2</title>
<ellipse fill="none" stroke="black" cx="174.26" cy="-123.42" rx="32.42" ry="32.42"/>
<text text-anchor="middle" x="174.26" y="-118.52" font-family="Times,serif" font-size="14.00">LR_2</text>
</g>
<!-- LR_0&#45;&gt;LR_2 -->
<g id="edge1" class="edge">
<title>LR_0&#45;&gt;LR_2</title>
<path fill="none" stroke="black" d="M71.35,-90.41C89.91,-96.42 113.04,-103.92 132.57,-110.24"/>
<polygon fill="black" stroke="black" points="131.41,-113.87 142,-113.62 133.57,-107.21 131.41,-113.87"/>
<text text-anchor="middle" x="107.34" y="-109.92" font-family="Times,serif" font-size="14.00">SS(B)</text>
</g>
<!-- LR_1 -->
<g id="node4" class="node">
<title>LR_1</title>
<ellipse fill="none" stroke="black" cx="174.26" cy="-38.42" rx="32.42" ry="32.42"/>
<text text-anchor="middle" x="174.26" y="-33.52" font-family="Times,serif" font-size="14.00">LR_1</text>
</g>
<!-- LR_0&#45;&gt;LR_1 -->
<g id="edge2" class="edge">
<title>LR_0&#45;&gt;LR_1</title>
<path fill="none" stroke="black" d="M71.7,-69.07C90.13,-63.51 112.99,-56.61 132.35,-50.77"/>
<polygon fill="black" stroke="black" points="133.14,-53.88 141.7,-47.64 131.12,-47.18 133.14,-53.88"/>
<text text-anchor="middle" x="107.34" y="-66.92" font-family="Times,serif" font-size="14.00">SS(S)</text>
</g>
<!-- LR_3 -->
<g id="node2" class="node">
<title>LR_3</title>
<ellipse fill="none" stroke="black" cx="322.1" cy="-36.42" rx="32.42" ry="32.42"/>
<ellipse fill="none" stroke="black" cx="322.1" cy="-36.42" rx="36.42" ry="36.42"/>
<text text-anchor="middle" x="322.1" y="-31.52" font-family="Times,serif" font-size="14.00">LR_3</text>
</g>
<!-- LR_6 -->
<g id="node5" class="node">
<title>LR_6</title>
<ellipse fill="none" stroke="black" cx="322.1" cy="-206.42" rx="32.42" ry="32.42"/>
<text text-anchor="middle" x="322.1" y="-201.52" font-family="Times,serif" font-size="14.00">LR_6</text>
</g>
<!-- LR_2&#45;&gt;LR_6 -->
<g id="edge4" class="edge">
<title>LR_2&#45;&gt;LR_6</title>
<path fill="none" stroke="black" d="M203.03,-139.23C226.04,-152.32 258.94,-171.05 284.17,-185.4"/>
<polygon fill="black" stroke="black" points="282.01,-188.77 292.43,-190.67 285.47,-182.68 282.01,-188.77"/>
<text text-anchor="middle" x="246.18" y="-177.92" font-family="Times,serif" font-size="14.00">SS(b)</text>
</g>
<!-- LR_5 -->
<g id="node6" class="node">
<title>LR_5</title>
<ellipse fill="none" stroke="black" cx="322.1" cy="-123.42" rx="32.42" ry="32.42"/>
<text text-anchor="middle" x="322.1" y="-118.52" font-family="Times,serif" font-size="14.00">LR_5</text>
</g>
<!-- LR_2&#45;&gt;LR_5 -->
<g id="edge5" class="edge">
<title>LR_2&#45;&gt;LR_5</title>
<path fill="none" stroke="black" d="M206.9,-123.42C227.85,-123.42 255.58,-123.42 278.47,-123.42"/>
<polygon fill="black" stroke="black" points="278.26,-126.92 288.26,-123.42 278.26,-119.92 278.26,-126.92"/>
<text text-anchor="middle" x="246.18" y="-126.92" font-family="Times,serif" font-size="14.00">SS(a)</text>
</g>
<!-- LR_1&#45;&gt;LR_3 -->
<g id="edge3" class="edge">
<title>LR_1&#45;&gt;LR_3</title>
<path fill="none" stroke="black" d="M206.9,-37.99C226.68,-37.71 252.51,-37.36 274.59,-37.06"/>
<polygon fill="black" stroke="black" points="274.47,-40.55 284.42,-36.91 274.37,-33.55 274.47,-40.55"/>
<text text-anchor="middle" x="246.18" y="-41.92" font-family="Times,serif" font-size="14.00">S($end)</text>
</g>
</g>
</svg>
