<?xml version="1.0" encoding="us-ascii" standalone="no"?><svg xmlns="http://www.w3.org/2000/svg" xmlns:xlink="http://www.w3.org/1999/xlink" contentStyleType="text/css" height="492.7318px" preserveAspectRatio="none" style="width:500px;height:492px;background:#003153;" version="1.1" viewBox="0 0 500 492" width="500.4068px" zoomAndPan="magnify"><defs/><g><rect fill="#003153" height="492.7318" style="stroke:none;stroke-width:0.7674950496569298;" width="500.4068" x="0" y="0"/><ellipse cx="312.9154" cy="28.3973" fill="#D9D3D0" rx="7.675" ry="7.675" style="stroke:none;stroke-width:0.7674950496569298;"/><g id="State1"><rect fill="#003153" height="38.3748" rx="9.5937" ry="9.5937" style="stroke:#D9D3D0;stroke-width:0.7674950496569298;" width="49.8872" x="347.8364" y="9.2099"/><line style="stroke:#D9D3D0;stroke-width:0.7674950496569298;" x1="347.8364" x2="397.7236" y1="29.3927" y2="29.3927"/><text fill="#D9D3D0" font-family="Verdana" font-size="10.7449" lengthAdjust="spacing" textLength="34.5373" x="355.5114" y="23.0211">State1</text></g><g id="State2"><rect fill="#003153" height="38.3748" rx="9.5937" ry="9.5937" style="stroke:#D9D3D0;stroke-width:0.7674950496569298;" width="49.8872" x="208.1523" y="106.6818"/><line style="stroke:#D9D3D0;stroke-width:0.7674950496569298;" x1="208.1523" x2="258.0395" y1="126.8645" y2="126.8645"/><text fill="#D9D3D0" font-family="Verdana" font-size="10.7449" lengthAdjust="spacing" textLength="34.5373" x="215.8273" y="120.493">State2</text></g><ellipse cx="238.4684" cy="481.1119" fill="none" rx="7.675" ry="7.675" style="stroke:#D9D3D0;stroke-width:0.7674950496569298;"/><ellipse cx="238.8521" cy="481.4957" fill="#D9D3D0" rx="4.605" ry="4.605" style="stroke:none;stroke-width:0.7674950496569298;"/><path d="M124.4954,204.1537 L341.6965,204.1537 A9.5937,9.5937 0 0 1 351.2902,213.7474 L351.2902,224.3364 L114.9017,224.3364 L114.9017,213.7474 A9.5937,9.5937 0 0 1 124.4954,204.1537 " fill="#003153" style="stroke:#003153;stroke-width:0.7674950496569298;"/><path d="M114.9017,224.3364 L351.2902,224.3364 L351.2902,404.7438 A9.5937,9.5937 0 0 1 341.6965,414.3375 L124.4954,414.3375 A9.5937,9.5937 0 0 1 114.9017,404.7438 L114.9017,224.3364 " fill="#003153" style="stroke:#003153;stroke-width:0.7674950496569298;"/><rect fill="none" height="210.1838" rx="9.5937" ry="9.5937" style="stroke:#D9D3D0;stroke-width:0.7674950496569298;" width="236.3885" x="114.9017" y="204.1537"/><line style="stroke:#D9D3D0;stroke-width:0.7674950496569298;" x1="114.9017" x2="351.2902" y1="224.3364" y2="224.3364"/><text fill="#D9D3D0" font-family="Verdana" font-size="10.7449" lengthAdjust="spacing" textLength="34.5373" x="215.8273" y="217.9648">State3</text><g id="State3.long1"><rect fill="#003153" height="51.0864" rx="9.5937" ry="9.5937" style="stroke:#D9D3D0;stroke-width:0.7674950496569298;" width="149.6615" x="124.1116" y="276.5261"/><line style="stroke:#D9D3D0;stroke-width:0.7674950496569298;" x1="124.1116" x2="273.7732" y1="309.2166" y2="309.2166"/><text fill="#D9D3D0" font-family="Verdana" font-size="10.7449" lengthAdjust="spacing" textLength="134.3116" x="131.7866" y="290.3372">Accumulate Enough Data</text><text fill="#D9D3D0" font-family="Verdana" font-size="10.7449" lengthAdjust="spacing" textLength="90.5644" x="153.6602" y="302.845">Long State Name</text><text fill="#D9D3D0" font-family="Verdana" font-size="9.2099" lengthAdjust="spacing" textLength="49.1197" x="127.9491" y="321.6029">Just a test</text></g><ellipse cx="198.9424" cy="240.4538" fill="#D9D3D0" rx="7.675" ry="7.675" style="stroke:none;stroke-width:0.7674950496569298;"/><g id="State3.ProcessData"><rect fill="#003153" height="38.3748" rx="9.5937" ry="9.5937" style="stroke:#D9D3D0;stroke-width:0.7674950496569298;" width="82.8895" x="157.4977" y="368.2878"/><line style="stroke:#D9D3D0;stroke-width:0.7674950496569298;" x1="157.4977" x2="240.3871" y1="388.4705" y2="388.4705"/><text fill="#D9D3D0" font-family="Verdana" font-size="10.7449" lengthAdjust="spacing" textLength="67.5396" x="165.1726" y="382.0989">ProcessData</text></g><!--link *start*State3 to long1--><g id="link_*start*State3_long1"><path d="M198.9424,248.3436 C198.9424,254.2227 198.9424,262.9798 198.9424,271.6908 " fill="none" id="*start*State3-to-long1" style="stroke:#D9D3D0;stroke-width:0.7674950496569298;"/><polygon fill="#D9D3D0" points="198.9424,275.4516,202.0124,268.5441,198.9424,271.6141,195.8724,268.5441,198.9424,275.4516" style="stroke:#D9D3D0;stroke-width:0.7674950496569298;"/></g><!--link long1 to long1--><g id="link_long1_long1"><path d="M273.9574,295.7979 C282.2386,296.9875 287.5881,299.0827 287.5881,302.0683 C287.5881,304.4936 284.0576,306.3279 278.2937,307.5712 " fill="none" id="long1-to-long1" style="stroke:#D9D3D0;stroke-width:0.7674950496569298;"/><polygon fill="#D9D3D0" points="274.7249,308.3387,282.0613,310.1592,278.5037,307.6706,280.9923,304.113,274.7249,308.3387" style="stroke:#D9D3D0;stroke-width:0.7674950496569298;"/><text fill="#D9D3D0" font-family="Verdana" font-size="9.9774" lengthAdjust="spacing" textLength="47.5847" x="292.193" y="305.5734">New Data</text></g><!--link long1 to ProcessData--><g id="link_long1_ProcessData"><path d="M198.9424,327.7717 C198.9424,339.1997 198.9424,352.6462 198.9424,363.8133 " fill="none" id="long1-to-ProcessData" style="stroke:#D9D3D0;stroke-width:0.7674950496569298;"/><polygon fill="#D9D3D0" points="198.9424,367.3591,202.0124,360.4517,198.9424,363.5216,195.8724,360.4517,198.9424,367.3591" style="stroke:#D9D3D0;stroke-width:0.7674950496569298;"/><text fill="#D9D3D0" font-family="Verdana" font-size="9.9774" lengthAdjust="spacing" textLength="63.7021" x="199.7099" y="351.4542">Enough Data</text></g><!--link *start* to State1--><g id="link_*start*_State1"><path d="M320.8667,28.3973 C328.2576,28.3973 335.6409,28.3973 343.0319,28.3973 " fill="none" id="*start*-to-State1" style="stroke:#D9D3D0;stroke-width:0.7674950496569298;"/><polygon fill="#D9D3D0" points="346.8694,28.3973,339.9619,25.3273,343.0319,28.3973,339.9619,31.4673,346.8694,28.3973" style="stroke:#D9D3D0;stroke-width:0.7674950496569298;"/></g><!--link State1 to State2--><g id="link_State1_State2"><path d="M347.4834,46.5409 C323.3533,63.1111 287.0508,88.047 261.8386,105.3617 " fill="none" id="State1-to-State2" style="stroke:#D9D3D0;stroke-width:0.7674950496569298;"/><polygon fill="#D9D3D0" points="258.9682,107.8561,266.4017,106.4846,262.1339,105.6872,262.9314,101.4194,258.9682,107.8561" style="stroke:#D9D3D0;stroke-width:0.7674950496569298;"/><text fill="#D9D3D0" font-family="Verdana" font-size="9.9774" lengthAdjust="spacing" textLength="54.4921" x="311.3804" y="80.6383">Succeeded</text></g><!--link State1 to *end*--><g id="link_State1_*end*"><path d="M382.627,47.7689 C412.5132,107.0195 495.395,294.4418 416.5272,414.3399 C378.8816,471.572 285.0477,479.3774 251.0323,480.2907 " fill="none" id="State1-to-*end*" style="stroke:#D9D3D0;stroke-width:0.7674950496569298;"/><polygon fill="#D9D3D0" points="247.2255,480.3828,254.193,483.3141,251.0622,480.3061,254.0702,477.1753,247.2255,480.3828" style="stroke:#D9D3D0;stroke-width:0.7674950496569298;"/><text fill="#D9D3D0" font-family="Verdana" font-size="9.9774" lengthAdjust="spacing" textLength="39.1422" x="433.4121" y="178.1102">Aborted</text></g><!--link State2 to State3--><g id="link_State2_State3"><path d="M233.0959,145.4173 C233.0959,158.9712 233.0959,178.4963 233.0959,199.3492 " fill="none" id="State2-to-State3" style="stroke:#D9D3D0;stroke-width:0.7674950496569298;"/><polygon fill="#D9D3D0" points="233.0959,203.0562,236.1659,196.1487,233.0959,199.2187,230.0259,196.1487,233.0959,203.0562" style="stroke:#D9D3D0;stroke-width:0.7674950496569298;"/><text fill="#D9D3D0" font-family="Verdana" font-size="9.9774" lengthAdjust="spacing" textLength="54.4921" x="233.8634" y="178.1102">Succeeded</text></g><!--link State2 to *end*--><g id="link_State2_*end*"><path d="M207.9144,129.4918 C168.5035,135.4629 93.3504,153.2534 60.4095,204.1537 C9.6474,282.5763 8.4424,336.7078 60.4095,414.3399 C98.5157,471.265 192.0656,479.27 225.9505,480.26 " fill="none" id="State2-to-*end*" style="stroke:#D9D3D0;stroke-width:0.7674950496569298;"/><polygon fill="#D9D3D0" points="229.7343,480.3598,222.8896,477.1523,225.8976,480.2831,222.7668,483.291,229.7343,480.3598" style="stroke:#D9D3D0;stroke-width:0.7674950496569298;"/><text fill="#D9D3D0" font-family="Verdana" font-size="9.9774" lengthAdjust="spacing" textLength="39.1422" x="61.177" y="312.7518">Aborted</text></g><!--link State3 to State3--><g id="link_State3_State3"><path d="M351.4744,286.8513 C367.492,290.6043 378.1525,298.0721 378.1525,309.2468 C378.1525,319.3777 369.3954,326.454 355.8337,330.491 " fill="none" id="State3-to-State3" style="stroke:#D9D3D0;stroke-width:0.7674950496569298;"/><polygon fill="#D9D3D0" points="352.2419,331.6423,359.7067,332.8316,355.9501,330.6549,358.1268,326.8983,352.2419,331.6423" style="stroke:#D9D3D0;stroke-width:0.7674950496569298;"/><text fill="#D9D3D0" font-family="Verdana" font-size="9.9774" lengthAdjust="spacing" textLength="28.3973" x="382.7575" y="312.7518">Failed</text></g><!--link State3 to *end*--><g id="link_State3_*end*"><path d="M151.5572,414.4397 C149.6385,426.827 151.5956,439.0839 159.4164,450.4121 C174.5744,472.3625 208.0526,478.2338 226.2038,479.7919 " fill="none" id="State3-to-*end*" style="stroke:#D9D3D0;stroke-width:0.7674950496569298;"/><polygon fill="#D9D3D0" points="229.9108,480.1142,223.2505,476.5395,226.0839,479.8291,222.7944,482.6625,229.9108,480.1142" style="stroke:#D9D3D0;stroke-width:0.7674950496569298;"/><text fill="#D9D3D0" font-family="Verdana" font-size="9.9774" lengthAdjust="spacing" textLength="121.2642" x="160.1839" y="447.3935">Succeeded / Save Result</text></g><!--link State3 to *end*--><g id="link_State3_*end*"><path d="M279.6445,414.6622 C281.8856,422.2451 283.8043,429.8663 285.2856,437.3647 C286.4061,443.0519 288.0716,445.3237 285.2856,450.4121 C277.8409,464.0045 261.3014,472.3318 250.0115,476.6375 " fill="none" id="State3-to-*end*-1" style="stroke:#D9D3D0;stroke-width:0.7674950496569298;"/><polygon fill="#D9D3D0" points="246.5962,478.1494,254.136,478.6869,250.2048,476.8442,252.0476,472.913,246.5962,478.1494" style="stroke:#D9D3D0;stroke-width:0.7674950496569298;"/><text fill="#D9D3D0" font-family="Verdana" font-size="9.9774" lengthAdjust="spacing" textLength="39.1422" x="286.8206" y="447.3935">Aborted</text></g><!--SRC=[RL0zRy8m4DtzArupLeeQWbWOa91e1rIXgXbfXyCvaKXEWk9p6Qh-zpfVO0IBxNiVT_Vy90LNZ8DnV6hBMfJLP1YB9C6vpALGQl_yZNY5J4XufeOByOIaM29pMZFdd8TiPrjYVMXQcOZqQflVsz87DjiHa-DtBAErrgvofdk_reqx5jYGq5VztjJ7GOmTLHo1B8p7Pge_VT-jimA2i9KXbvyOAYwrr-xutFSDg8-sqMnjXtf1C5lzgN79cuHlL9eftZo8TqcE5sJqm_XawupS2yT_-0S0]--></g></svg>