<?xml version="1.0" encoding="us-ascii" standalone="no"?><svg xmlns="http://www.w3.org/2000/svg" xmlns:xlink="http://www.w3.org/1999/xlink" contentStyleType="text/css" height="184px" preserveAspectRatio="none" style="width:388px;height:184px;background:#003153;" version="1.1" viewBox="0 0 388 184" width="388px" zoomAndPan="magnify"><defs/><g><rect fill="#003153" height="184" style="stroke:none;stroke-width:1.0;" width="388" x="0" y="0"/><!--class Car--><g id="elem_Car"><rect codeLine="2" fill="#003153" height="44" id="Car" rx="2.5" ry="2.5" style="stroke:#D9D3D0;stroke-width:1.0;" width="51" x="167.5" y="12"/><ellipse cx="180.5" cy="26" fill="#003153" rx="9" ry="9" style="stroke:#D9D3D0;stroke-width:1.0;"/><path d="M183.9063,27.9688 C183.1875,28.6406 181.8906,29.8125 180.1406,29.8125 C177.9219,29.8125 176.9531,27.875 176.9531,25.9219 C176.9531,23.5313 178.4375,22.2656 180.0781,22.2656 C182.0938,22.2656 182.3125,23.7813 182.4844,24.875 L183.9063,24.6875 C183.8125,24.1094 183.7344,23.5313 183.7344,22.5625 C183.7344,21.8906 183.7813,21.3438 183.8125,20.9219 L182.4063,20.9219 L182.2969,21.875 C181.7031,21.3438 181.0625,20.7969 179.8438,20.7969 C177.7969,20.7969 175.3906,22.625 175.3906,25.9375 C175.3906,28.875 177.1563,31.2656 180.1563,31.2656 C182.5938,31.2656 184.2969,29.6406 184.8906,29.0625 L183.9063,27.9688 Z " fill="#D9D3D0"/><text fill="#D9D3D0" font-family="Verdana" font-size="14" lengthAdjust="spacing" textLength="23" x="192.5" y="30.8467">Car</text><line style="stroke:#D9D3D0;stroke-width:1.0;" x1="168.5" x2="217.5" y1="40" y2="40"/><line style="stroke:#D9D3D0;stroke-width:1.0;" x1="168.5" x2="217.5" y1="48" y2="48"/></g><!--class Driver--><g id="elem_Driver"><rect fill="#003153" height="44" id="Driver" rx="2.5" ry="2.5" style="stroke:#D9D3D0;stroke-width:1.0;" width="68" x="12" y="12"/><ellipse cx="25" cy="26" fill="#003153" rx="9" ry="9" style="stroke:#D9D3D0;stroke-width:1.0;"/><path d="M28.4063,27.9688 C27.6875,28.6406 26.3906,29.8125 24.6406,29.8125 C22.4219,29.8125 21.4531,27.875 21.4531,25.9219 C21.4531,23.5313 22.9375,22.2656 24.5781,22.2656 C26.5938,22.2656 26.8125,23.7813 26.9844,24.875 L28.4063,24.6875 C28.3125,24.1094 28.2344,23.5313 28.2344,22.5625 C28.2344,21.8906 28.2813,21.3438 28.3125,20.9219 L26.9063,20.9219 L26.7969,21.875 C26.2031,21.3438 25.5625,20.7969 24.3438,20.7969 C22.2969,20.7969 19.8906,22.625 19.8906,25.9375 C19.8906,28.875 21.6563,31.2656 24.6563,31.2656 C27.0938,31.2656 28.7969,29.6406 29.3906,29.0625 L28.4063,27.9688 Z " fill="#D9D3D0"/><text fill="#D9D3D0" font-family="Verdana" font-size="14" lengthAdjust="spacing" textLength="40" x="37" y="30.8467">Driver</text><line style="stroke:#D9D3D0;stroke-width:1.0;" x1="13" x2="79" y1="40" y2="40"/><line style="stroke:#D9D3D0;stroke-width:1.0;" x1="13" x2="79" y1="48" y2="48"/></g><!--class Wheel--><g id="elem_Wheel"><rect fill="#003153" height="44" id="Wheel" rx="2.5" ry="2.5" style="stroke:#D9D3D0;stroke-width:1.0;" width="71" x="310.5" y="12"/><ellipse cx="323.5" cy="26" fill="#003153" rx="9" ry="9" style="stroke:#D9D3D0;stroke-width:1.0;"/><path d="M326.9063,27.9688 C326.1875,28.6406 324.8906,29.8125 323.1406,29.8125 C320.9219,29.8125 319.9531,27.875 319.9531,25.9219 C319.9531,23.5313 321.4375,22.2656 323.0781,22.2656 C325.0938,22.2656 325.3125,23.7813 325.4844,24.875 L326.9063,24.6875 C326.8125,24.1094 326.7344,23.5313 326.7344,22.5625 C326.7344,21.8906 326.7813,21.3438 326.8125,20.9219 L325.4063,20.9219 L325.2969,21.875 C324.7031,21.3438 324.0625,20.7969 322.8438,20.7969 C320.7969,20.7969 318.3906,22.625 318.3906,25.9375 C318.3906,28.875 320.1563,31.2656 323.1563,31.2656 C325.5938,31.2656 327.2969,29.6406 327.8906,29.0625 L326.9063,27.9688 Z " fill="#D9D3D0"/><text fill="#D9D3D0" font-family="Verdana" font-size="14" lengthAdjust="spacing" textLength="43" x="335.5" y="30.8467">Wheel</text><line style="stroke:#D9D3D0;stroke-width:1.0;" x1="311.5" x2="380.5" y1="40" y2="40"/><line style="stroke:#D9D3D0;stroke-width:1.0;" x1="311.5" x2="380.5" y1="48" y2="48"/></g><!--class Person--><g id="elem_Person"><rect fill="#003153" height="44" id="Person" rx="2.5" ry="2.5" style="stroke:#D9D3D0;stroke-width:1.0;" width="77" x="154.5" y="133"/><ellipse cx="167.5" cy="147" fill="#003153" rx="9" ry="9" style="stroke:#D9D3D0;stroke-width:1.0;"/><path d="M170.9063,148.9688 C170.1875,149.6406 168.8906,150.8125 167.1406,150.8125 C164.9219,150.8125 163.9531,148.875 163.9531,146.9219 C163.9531,144.5313 165.4375,143.2656 167.0781,143.2656 C169.0938,143.2656 169.3125,144.7813 169.4844,145.875 L170.9063,145.6875 C170.8125,145.1094 170.7344,144.5313 170.7344,143.5625 C170.7344,142.8906 170.7813,142.3438 170.8125,141.9219 L169.4063,141.9219 L169.2969,142.875 C168.7031,142.3438 168.0625,141.7969 166.8438,141.7969 C164.7969,141.7969 162.3906,143.625 162.3906,146.9375 C162.3906,149.875 164.1563,152.2656 167.1563,152.2656 C169.5938,152.2656 171.2969,150.6406 171.8906,150.0625 L170.9063,148.9688 Z " fill="#D9D3D0"/><text fill="#D9D3D0" font-family="Verdana" font-size="14" lengthAdjust="spacing" textLength="49" x="179.5" y="151.8467">Person</text><line style="stroke:#D9D3D0;stroke-width:1.0;" x1="155.5" x2="230.5" y1="161" y2="161"/><line style="stroke:#D9D3D0;stroke-width:1.0;" x1="155.5" x2="230.5" y1="169" y2="169"/></g><!--link Driver to Car--><g id="link_Driver_Car"><path codeLine="4" d="M80.46,34 C106.94,34 142.94,34 167.02,34 " fill="none" id="Driver-Car" style="stroke:#D9D3D0;stroke-width:1.0;"/><polygon fill="#D9D3D0" points="107.25,22.5664,98.2049,19.6275,98.2049,25.5053,107.25,22.5664" style="stroke:#D9D3D0;stroke-width:1.0;"/><text fill="#D9D3D0" font-family="Verdana" font-size="13" lengthAdjust="spacing" textLength="38" x="111.25" y="27.0669">drives</text></g><!--reverse link Car to Wheel--><g id="link_Car_Wheel"><path codeLine="5" d="M232.92,34 C256.84,34 287,34 310.15,34 " fill="none" id="Car-backto-Wheel" style="stroke:#D9D3D0;stroke-width:1.0;"/><polygon fill="#D9D3D0" points="219.95,34,225.95,38,231.95,34,225.95,30,219.95,34" style="stroke:#D9D3D0;stroke-width:1.0;"/><polygon fill="#D9D3D0" points="245.5,22.5664,236.4549,19.6275,236.4549,25.5053,245.5,22.5664" style="stroke:#D9D3D0;stroke-width:1.0;"/><text fill="#D9D3D0" font-family="Verdana" font-size="13" lengthAdjust="spacing" textLength="43" x="249.5" y="27.0669">have 4</text></g><!--link Car to Person--><g id="link_Car_Person"><path codeLine="6" d="M193,56.27 C193,77.8 193,110.9 193,132.51 " fill="none" id="Car-Person" style="stroke:#D9D3D0;stroke-width:1.0;"/><polygon fill="#D9D3D0" points="198,89.5664,195.0611,98.6115,200.9389,98.6115,198,89.5664" style="stroke:#D9D3D0;stroke-width:1.0;"/><text fill="#D9D3D0" font-family="Verdana" font-size="13" lengthAdjust="spacing" textLength="32" x="207" y="99.0669">owns</text></g><!--SRC=[Kop9ICrDLKZAAKqjAChCA-5ApaaiBbPmJYpYud8foYnBBLBG1V4Kh1HIGDnY1Jik45TBLo4y8pKr1oYUaLYMgc025TVLLGX8BIhEpmDAs2Zab-SL0m00]--></g></svg>