<?xml version="1.0" encoding="us-ascii" standalone="no"?><svg xmlns="http://www.w3.org/2000/svg" xmlns:xlink="http://www.w3.org/1999/xlink" contentStyleType="text/css" height="507px" preserveAspectRatio="none" style="width:527px;height:507px;background:#FFFFFF;" version="1.1" viewBox="0 0 527 507" width="527px" zoomAndPan="magnify"><defs/><g><rect fill="#F1F1F1" height="142.0781" rx="5" ry="5" style="stroke:#F1F1F1;stroke-width:1.5;" width="212" x="10" y="17.4609"/><text fill="#000000" font-family="sans-serif" font-size="14" font-weight="bold" lengthAdjust="spacing" textLength="28" x="15" y="32.4561">null</text><text fill="#000000" font-family="sans-serif" font-size="14" lengthAdjust="spacing" textLength="11" x="131" y="32.4561">&#9216;</text><line style="stroke:#000000;stroke-width:1.0;" x1="126" x2="126" y1="17.4609" y2="37.7578"/><line style="stroke:#000000;stroke-width:1.0;" x1="10" x2="222" y1="37.7578" y2="37.7578"/><text fill="#000000" font-family="sans-serif" font-size="14" font-weight="bold" lengthAdjust="spacing" textLength="33" x="15" y="52.7529">true</text><text fill="#000000" font-family="sans-serif" font-size="14" lengthAdjust="spacing" textLength="45" x="131" y="52.7529">&#9745; true</text><line style="stroke:#000000;stroke-width:1.0;" x1="126" x2="126" y1="37.7578" y2="58.0547"/><line style="stroke:#000000;stroke-width:1.0;" x1="10" x2="222" y1="58.0547" y2="58.0547"/><text fill="#000000" font-family="sans-serif" font-size="14" font-weight="bold" lengthAdjust="spacing" textLength="38" x="15" y="73.0498">false</text><text fill="#000000" font-family="sans-serif" font-size="14" lengthAdjust="spacing" textLength="49" x="131" y="73.0498">&#9744; false</text><line style="stroke:#000000;stroke-width:1.0;" x1="126" x2="126" y1="58.0547" y2="78.3516"/><line style="stroke:#000000;stroke-width:1.0;" x1="10" x2="222" y1="78.3516" y2="78.3516"/><text fill="#000000" font-family="sans-serif" font-size="14" font-weight="bold" lengthAdjust="spacing" textLength="106" x="15" y="93.3467">JSON_Number</text><text fill="#000000" font-family="sans-serif" font-size="14" lengthAdjust="spacing" textLength="12" x="131" y="93.3467">&#160;&#160;&#160;</text><line style="stroke:#000000;stroke-width:1.0;" x1="126" x2="126" y1="78.3516" y2="98.6484"/><line style="stroke:#000000;stroke-width:1.0;" x1="10" x2="222" y1="98.6484" y2="98.6484"/><text fill="#000000" font-family="sans-serif" font-size="14" font-weight="bold" lengthAdjust="spacing" textLength="91" x="15" y="113.6436">JSON_String</text><text fill="#000000" font-family="sans-serif" font-size="14" lengthAdjust="spacing" textLength="25" x="131" y="113.6436">a
b&#13;c</text><text fill="#000000" font-family="sans-serif" font-size="14" lengthAdjust="spacing" textLength="9" x="163" y="113.6436">d</text><text fill="#008000" font-family="sans-serif" font-size="14" lengthAdjust="spacing" textLength="41" x="176" y="113.6436">TBC...</text><line style="stroke:#000000;stroke-width:1.0;" x1="126" x2="126" y1="98.6484" y2="118.9453"/><line style="stroke:#000000;stroke-width:1.0;" x1="10" x2="222" y1="118.9453" y2="118.9453"/><text fill="#000000" font-family="sans-serif" font-size="14" font-weight="bold" lengthAdjust="spacing" textLength="95" x="15" y="133.9404">JSON_Object</text><text fill="#000000" font-family="sans-serif" font-size="14" lengthAdjust="spacing" textLength="12" x="131" y="133.9404">&#160;&#160;&#160;</text><line style="stroke:#000000;stroke-width:1.0;" x1="126" x2="126" y1="118.9453" y2="139.2422"/><line style="stroke:#000000;stroke-width:1.0;" x1="10" x2="222" y1="139.2422" y2="139.2422"/><text fill="#000000" font-family="sans-serif" font-size="14" font-weight="bold" lengthAdjust="spacing" textLength="87" x="15" y="154.2373">JSON_Array</text><text fill="#000000" font-family="sans-serif" font-size="14" lengthAdjust="spacing" textLength="12" x="131" y="154.2373">&#160;&#160;&#160;</text><line style="stroke:#000000;stroke-width:1.0;" x1="126" x2="126" y1="139.2422" y2="159.5391"/><rect fill="none" height="142.0781" rx="5" ry="5" style="stroke:#000000;stroke-width:1.5;" width="212" x="10" y="17.4609"/><rect fill="#F1F1F1" height="60.8906" rx="5" ry="5" style="stroke:#F1F1F1;stroke-width:1.5;" width="39" x="283" y="10"/><text fill="#000000" font-family="sans-serif" font-size="14" lengthAdjust="spacing" textLength="14" x="288" y="24.9951">-1</text><line style="stroke:#000000;stroke-width:1.0;" x1="283" x2="322" y1="30.2969" y2="30.2969"/><text fill="#000000" font-family="sans-serif" font-size="14" lengthAdjust="spacing" textLength="27" x="288" y="45.292">-1.1</text><line style="stroke:#000000;stroke-width:1.0;" x1="283" x2="322" y1="50.5938" y2="50.5938"/><text fill="#008000" font-family="sans-serif" font-size="14" lengthAdjust="spacing" textLength="29" x="288" y="65.5889">TBC</text><rect fill="none" height="60.8906" rx="5" ry="5" style="stroke:#000000;stroke-width:1.5;" width="39" x="283" y="10"/><rect fill="#F1F1F1" height="81.1875" rx="5" ry="5" style="stroke:#F1F1F1;stroke-width:1.5;" width="87" x="259" y="88.9063"/><text fill="#000000" font-family="sans-serif" font-size="14" font-weight="bold" lengthAdjust="spacing" textLength="20" x="264" y="103.9014">{}</text><text fill="#000000" font-family="sans-serif" font-size="14" lengthAdjust="spacing" textLength="12" x="314" y="103.9014">&#160;&#160;&#160;</text><line style="stroke:#000000;stroke-width:1.0;" x1="309" x2="309" y1="88.9063" y2="109.2031"/><line style="stroke:#000000;stroke-width:1.0;" x1="259" x2="346" y1="109.2031" y2="109.2031"/><text fill="#000000" font-family="sans-serif" font-size="14" font-weight="bold" lengthAdjust="spacing" textLength="36" x="264" y="124.1982">k_int</text><text fill="#000000" font-family="sans-serif" font-size="14" lengthAdjust="spacing" textLength="27" x="314" y="124.1982">123</text><line style="stroke:#000000;stroke-width:1.0;" x1="309" x2="309" y1="109.2031" y2="129.5"/><line style="stroke:#000000;stroke-width:1.0;" x1="259" x2="346" y1="129.5" y2="129.5"/><text fill="#000000" font-family="sans-serif" font-size="14" font-weight="bold" lengthAdjust="spacing" textLength="38" x="264" y="144.4951">k_str</text><text fill="#000000" font-family="sans-serif" font-size="14" lengthAdjust="spacing" textLength="25" x="314" y="144.4951">abc</text><line style="stroke:#000000;stroke-width:1.0;" x1="309" x2="309" y1="129.5" y2="149.7969"/><line style="stroke:#000000;stroke-width:1.0;" x1="259" x2="346" y1="149.7969" y2="149.7969"/><text fill="#000000" font-family="sans-serif" font-size="14" font-weight="bold" lengthAdjust="spacing" textLength="40" x="264" y="164.792">k_obj</text><text fill="#000000" font-family="sans-serif" font-size="14" lengthAdjust="spacing" textLength="12" x="314" y="164.792">&#160;&#160;&#160;</text><line style="stroke:#000000;stroke-width:1.0;" x1="309" x2="309" y1="149.7969" y2="170.0938"/><rect fill="none" height="81.1875" rx="5" ry="5" style="stroke:#000000;stroke-width:1.5;" width="87" x="259" y="88.9063"/><rect fill="#F1F1F1" height="15" rx="5" ry="5" style="stroke:#F1F1F1;stroke-width:1.5;" width="30" x="404.5" y="92"/><rect fill="none" height="15" rx="5" ry="5" style="stroke:#000000;stroke-width:1.5;" width="30" x="404.5" y="92"/><rect fill="#F1F1F1" height="20.2969" rx="5" ry="5" style="stroke:#F1F1F1;stroke-width:1.5;" width="36" x="394.5" y="125.3516"/><text fill="#000000" font-family="sans-serif" font-size="14" font-weight="bold" lengthAdjust="spacing" textLength="9" x="399.5" y="140.3467">k</text><text fill="#000000" font-family="sans-serif" font-size="14" lengthAdjust="spacing" textLength="7" x="418.5" y="140.3467">v</text><line style="stroke:#000000;stroke-width:1.0;" x1="413.5" x2="413.5" y1="125.3516" y2="145.6484"/><rect fill="none" height="20.2969" rx="5" ry="5" style="stroke:#000000;stroke-width:1.5;" width="36" x="394.5" y="125.3516"/><rect fill="#F1F1F1" height="101.4844" rx="5" ry="5" style="stroke:#F1F1F1;stroke-width:1.5;" width="22" x="291.5" y="206.7578"/><text fill="#000000" font-family="sans-serif" font-size="14" lengthAdjust="spacing" textLength="12" x="296.5" y="221.7529">&#160;&#160;&#160;</text><line style="stroke:#000000;stroke-width:1.0;" x1="291.5" x2="313.5" y1="227.0547" y2="227.0547"/><text fill="#000000" font-family="sans-serif" font-size="14" lengthAdjust="spacing" textLength="12" x="296.5" y="242.0498">&#160;&#160;&#160;</text><line style="stroke:#000000;stroke-width:1.0;" x1="291.5" x2="313.5" y1="247.3516" y2="247.3516"/><text fill="#000000" font-family="sans-serif" font-size="14" lengthAdjust="spacing" textLength="12" x="296.5" y="262.3467">&#160;&#160;&#160;</text><line style="stroke:#000000;stroke-width:1.0;" x1="291.5" x2="313.5" y1="267.6484" y2="267.6484"/><text fill="#000000" font-family="sans-serif" font-size="14" lengthAdjust="spacing" textLength="12" x="296.5" y="282.6436">&#160;&#160;&#160;</text><line style="stroke:#000000;stroke-width:1.0;" x1="291.5" x2="313.5" y1="287.9453" y2="287.9453"/><text fill="#000000" font-family="sans-serif" font-size="14" lengthAdjust="spacing" textLength="12" x="296.5" y="302.9404">&#160;&#160;&#160;</text><rect fill="none" height="101.4844" rx="5" ry="5" style="stroke:#000000;stroke-width:1.5;" width="22" x="291.5" y="206.7578"/><rect fill="#F1F1F1" height="15" rx="5" ry="5" style="stroke:#F1F1F1;stroke-width:1.5;" width="30" x="404.5" y="164"/><rect fill="none" height="15" rx="5" ry="5" style="stroke:#000000;stroke-width:1.5;" width="30" x="404.5" y="164"/><rect fill="#F1F1F1" height="40.5938" rx="5" ry="5" style="stroke:#F1F1F1;stroke-width:1.5;" width="59" x="383" y="197"/><text fill="#000000" font-family="sans-serif" font-size="14" lengthAdjust="spacing" textLength="45" x="388" y="211.9951">&#9745; true</text><line style="stroke:#000000;stroke-width:1.0;" x1="383" x2="442" y1="217.2969" y2="217.2969"/><text fill="#000000" font-family="sans-serif" font-size="14" lengthAdjust="spacing" textLength="49" x="388" y="232.292">&#9744; false</text><rect fill="none" height="40.5938" rx="5" ry="5" style="stroke:#000000;stroke-width:1.5;" width="59" x="383" y="197"/><rect fill="#F1F1F1" height="40.5938" rx="5" ry="5" style="stroke:#F1F1F1;stroke-width:1.5;" width="24" x="400.5" y="256"/><text fill="#000000" font-family="sans-serif" font-size="14" lengthAdjust="spacing" textLength="14" x="405.5" y="270.9951">-1</text><line style="stroke:#000000;stroke-width:1.0;" x1="400.5" x2="424.5" y1="276.2969" y2="276.2969"/><text fill="#000000" font-family="sans-serif" font-size="14" lengthAdjust="spacing" textLength="9" x="405.5" y="291.292">1</text><rect fill="none" height="40.5938" rx="5" ry="5" style="stroke:#000000;stroke-width:1.5;" width="24" x="400.5" y="256"/><rect fill="#F1F1F1" height="60.8906" rx="5" ry="5" style="stroke:#F1F1F1;stroke-width:1.5;" width="19" x="403" y="315"/><text fill="#000000" font-family="sans-serif" font-size="14" lengthAdjust="spacing" textLength="8" x="408" y="329.9951">a</text><line style="stroke:#000000;stroke-width:1.0;" x1="403" x2="422" y1="335.2969" y2="335.2969"/><text fill="#000000" font-family="sans-serif" font-size="14" lengthAdjust="spacing" textLength="9" x="408" y="350.292">b</text><line style="stroke:#000000;stroke-width:1.0;" x1="403" x2="422" y1="355.5938" y2="355.5938"/><text fill="#000000" font-family="sans-serif" font-size="14" lengthAdjust="spacing" textLength="8" x="408" y="370.5889">c</text><rect fill="none" height="60.8906" rx="5" ry="5" style="stroke:#000000;stroke-width:1.5;" width="19" x="403" y="315"/><rect fill="#F1F1F1" height="101.4844" rx="5" ry="5" style="stroke:#F1F1F1;stroke-width:1.5;" width="55" x="385" y="393.7578"/><text fill="#000000" font-family="sans-serif" font-size="14" lengthAdjust="spacing" textLength="23" x="390" y="408.7529">mix</text><line style="stroke:#000000;stroke-width:1.0;" x1="385" x2="440" y1="414.0547" y2="414.0547"/><text fill="#000000" font-family="sans-serif" font-size="14" lengthAdjust="spacing" textLength="11" x="390" y="429.0498">&#9216;</text><line style="stroke:#000000;stroke-width:1.0;" x1="385" x2="440" y1="434.3516" y2="434.3516"/><text fill="#000000" font-family="sans-serif" font-size="14" lengthAdjust="spacing" textLength="45" x="390" y="449.3467">&#9745; true</text><line style="stroke:#000000;stroke-width:1.0;" x1="385" x2="440" y1="454.6484" y2="454.6484"/><text fill="#000000" font-family="sans-serif" font-size="14" lengthAdjust="spacing" textLength="9" x="390" y="469.6436">1</text><line style="stroke:#000000;stroke-width:1.0;" x1="385" x2="440" y1="474.9453" y2="474.9453"/><text fill="#000000" font-family="sans-serif" font-size="14" lengthAdjust="spacing" textLength="12" x="390" y="489.9404">&#160;&#160;&#160;</text><rect fill="none" height="101.4844" rx="5" ry="5" style="stroke:#000000;stroke-width:1.5;" width="55" x="385" y="393.7578"/><rect fill="#F1F1F1" height="20.2969" rx="5" ry="5" style="stroke:#F1F1F1;stroke-width:1.5;" width="36" x="479" y="475.3516"/><text fill="#000000" font-family="sans-serif" font-size="14" font-weight="bold" lengthAdjust="spacing" textLength="9" x="484" y="490.3467">k</text><text fill="#000000" font-family="sans-serif" font-size="14" lengthAdjust="spacing" textLength="7" x="503" y="490.3467">v</text><line style="stroke:#000000;stroke-width:1.0;" x1="498" x2="498" y1="475.3516" y2="495.6484"/><rect fill="none" height="20.2969" rx="5" ry="5" style="stroke:#000000;stroke-width:1.5;" width="36" x="479" y="475.3516"/><path d="M210,88.5 L223,88.5 C243.3615,88.5 262.9448,76.71 277.52,64.8164 " fill="none" style="stroke:#000000;stroke-width:1.0;stroke-dasharray:3.0,3.0;"/><path d="M279.5478,67.1874 L279.2983,63.2955 L275.4922,62.4454 L283.4476,59.7469 L279.5478,67.1874 " fill="#000000" style="stroke:#000000;stroke-width:1.0;"/><ellipse cx="210" cy="88.5" fill="#000000" rx="3" ry="3" style="stroke:#000000;stroke-width:1.0;"/><path d="M334,99.5 L347,99.5 C364.218,99.5 384.0016,99.5 397.1762,99.5 " fill="none" style="stroke:#000000;stroke-width:1.0;stroke-dasharray:3.0,3.0;"/><path d="M397.1762,102.5439 L399.4591,99.5 L397.1762,96.4561 L404.786,99.5 L397.1762,102.5439 " fill="#000000" style="stroke:#000000;stroke-width:1.0;"/><ellipse cx="334" cy="99.5" fill="#000000" rx="3" ry="3" style="stroke:#000000;stroke-width:1.0;"/><path d="M334,159.5 L347,159.5 C361.1458,159.5 376.011,154.4359 387.9499,148.9602 " fill="none" style="stroke:#000000;stroke-width:1.0;stroke-dasharray:3.0,3.0;"/><path d="M389.3184,151.7693 L390.0568,147.9338 L386.5815,146.151 L394.9729,145.5391 L389.3184,151.7693 " fill="#000000" style="stroke:#000000;stroke-width:1.0;"/><ellipse cx="334" cy="159.5" fill="#000000" rx="3" ry="3" style="stroke:#000000;stroke-width:1.0;"/><path d="M210,129.5 L223,129.5 C232.3071,129.5 242.231,129.5 251.7907,129.5 " fill="none" style="stroke:#000000;stroke-width:1.0;stroke-dasharray:3.0,3.0;"/><path d="M251.7907,132.5279 L254.0616,129.5 L251.7907,126.4721 L259.3605,129.5 L251.7907,132.5279 " fill="#000000" style="stroke:#000000;stroke-width:1.0;"/><ellipse cx="210" cy="129.5" fill="#000000" rx="3" ry="3" style="stroke:#000000;stroke-width:1.0;"/><path d="M302,216.5 L315,216.5 C323.8746,216.5 373.6108,191.3931 398.2142,178.6864 " fill="none" style="stroke:#000000;stroke-width:1.0;stroke-dasharray:3.0,3.0;"/><path d="M399.6158,181.3886 L400.2409,177.6352 L396.8127,175.9841 L404.9698,175.1825 L399.6158,181.3886 " fill="#000000" style="stroke:#000000;stroke-width:1.0;"/><ellipse cx="302" cy="216.5" fill="#000000" rx="3" ry="3" style="stroke:#000000;stroke-width:1.0;"/><path d="M302,237.5 L315,237.5 C335.4615,237.5 357.8599,233.1784 375.9732,228.5529 " fill="none" style="stroke:#000000;stroke-width:1.0;stroke-dasharray:3.0,3.0;"/><path d="M376.7689,231.5459 L378.2179,227.9562 L375.1775,225.56 L383.4556,226.5637 L376.7689,231.5459 " fill="#000000" style="stroke:#000000;stroke-width:1.0;"/><ellipse cx="302" cy="237.5" fill="#000000" rx="3" ry="3" style="stroke:#000000;stroke-width:1.0;"/><path d="M302,257.5 L315,257.5 C342.7514,257.5 374.15,265.0822 393.5132,270.667 " fill="none" style="stroke:#000000;stroke-width:1.0;stroke-dasharray:3.0,3.0;"/><path d="M392.6454,273.5778 L395.6964,271.3179 L394.3811,267.7562 L400.7903,272.8366 L392.6454,273.5778 " fill="#000000" style="stroke:#000000;stroke-width:1.0;"/><ellipse cx="302" cy="257.5" fill="#000000" rx="3" ry="3" style="stroke:#000000;stroke-width:1.0;"/><path d="M302,277.5 L315,277.5 C350.0396,277.5 381.4034,307.619 398.4642,327.767 " fill="none" style="stroke:#000000;stroke-width:1.0;stroke-dasharray:3.0,3.0;"/><path d="M396.1089,329.6965 L399.9113,329.5335 L400.8195,325.8375 L403.288,333.6553 L396.1089,329.6965 " fill="#000000" style="stroke:#000000;stroke-width:1.0;"/><ellipse cx="302" cy="277.5" fill="#000000" rx="3" ry="3" style="stroke:#000000;stroke-width:1.0;"/><path d="M429,485.5 L442,485.5 C451.6599,485.5 462.2829,485.5 471.5645,485.5 " fill="none" style="stroke:#000000;stroke-width:1.0;stroke-dasharray:3.0,3.0;"/><path d="M471.5645,488.6013 L473.8905,485.5 L471.5645,482.3987 L479.3178,485.5 L471.5645,488.6013 " fill="#000000" style="stroke:#000000;stroke-width:1.0;"/><ellipse cx="429" cy="485.5" fill="#000000" rx="3" ry="3" style="stroke:#000000;stroke-width:1.0;"/><path d="M303,296.5 L303,309.5 C303,358.4976 347.0036,399.7313 379.0931,423.2866 " fill="none" style="stroke:#000000;stroke-width:1.0;stroke-dasharray:3.0,3.0;"/><path d="M377.3042,425.7836 L380.9659,424.6283 L380.8821,420.7896 L385.3356,427.759 L377.3042,425.7836 " fill="#000000" style="stroke:#000000;stroke-width:1.0;"/><ellipse cx="303" cy="296.5" fill="#000000" rx="3" ry="3" style="stroke:#000000;stroke-width:1.0;"/><path d="M210,149.5 L223,149.5 C242.9236,149.5 271.6146,197.9854 288.3797,229.9829 " fill="none" style="stroke:#000000;stroke-width:1.0;stroke-dasharray:3.0,3.0;"/><path d="M285.6001,231.419 L289.4567,232.0676 L291.1592,228.5468 L291.9699,236.9318 L285.6001,231.419 " fill="#000000" style="stroke:#000000;stroke-width:1.0;"/><ellipse cx="210" cy="149.5" fill="#000000" rx="3" ry="3" style="stroke:#000000;stroke-width:1.0;"/><!--SRC=[NP5lQy8m4CRVvrCSUQMWPQq3Hnd3pSs1M2VppniLITjOeZM1D969zBllab86UvFhx_BSvPxhg39CcrEb9BaJAcrPqXXSw15gjEL8BY0TMLavz15vkloQ7-RsadADsMq_x44_3F2apvagbOuBpRbyMRsDwRwLBuqMia0vPJkPxdIsCpdybmT1GDk2h_J4CuC5EDozTh76g_D1I9SCeu6docZVCysePvMUd9IUNVPAQrAt_LwrPZSAE2_PubHRxwsnvD2P2Dq7PHIDfEx8g4zSn0-Itqop4K3jtnDxiYSr6N6P-rsIHScaMISpk79T2IKX3AA7Q10CEnCj864t71x2OHmDuiS8rginkEikwNmkPb0fgpCEkK1Z8hK6wxjaoguClgqquiARNqIccoI6fKrHnWo7JKBU-P7Pqi27p5IEguwnzQJ_H6PC5fOLRU5OOHzzQ-WN]--></g></svg>